<?xml version="1.0" standalone="no"?>
<!DOCTYPE svg PUBLIC "-//W3C//DTD SVG 20010904//EN"
 "http://www.w3.org/TR/2001/REC-SVG-20010904/DTD/svg10.dtd">
<svg version="1.0" xmlns="http://www.w3.org/2000/svg"
 width="250.000000pt" height="250.000000pt" viewBox="0 0 250.000000 250.000000"
 preserveAspectRatio="xMidYMid meet">
<metadata>
Created by potrace 1.14, written by Peter Selinger 2001-2017
</metadata>
<g transform="translate(0.000000,250.000000) scale(0.100000,-0.100000)"
fill="#000000" stroke="none">
<path d="M850 2055 c-7 -8 -9 -15 -5 -15 4 0 -2 -15 -12 -33 -12 -20 -19 -48
-18 -72 1 -22 -1 -42 -5 -45 -4 -3 -24 -41 -45 -85 -22 -44 -43 -82 -47 -83
-24 -10 -38 -35 -32 -60 4 -15 10 -31 15 -37 8 -11 -13 -69 -29 -79 -6 -3 -18
-31 -27 -61 -10 -30 -20 -56 -24 -56 -3 -1 -19 -3 -36 -5 -51 -6 -54 -7 -49
-16 3 -4 1 -8 -5 -8 -16 0 -24 -41 -22 -105 3 -70 -13 -93 -68 -97 -42 -3 -62
-25 -38 -43 28 -20 22 -79 -13 -118 -16 -19 -27 -37 -23 -40 3 -4 -1 -15 -10
-25 -10 -10 -14 -22 -11 -25 8 -7 -44 -87 -56 -87 -5 0 -7 -8 -5 -17 1 -10 -2
-23 -7 -30 -5 -7 -7 -16 -4 -21 3 -5 -11 -23 -30 -41 -54 -51 -58 -66 -26 -87
15 -10 34 -20 42 -21 32 -7 120 -10 125 -4 6 5 16 7 75 16 19 2 50 7 68 10 21
3 31 1 27 -5 -4 -6 -3 -10 2 -9 18 3 34 -1 29 -9 -2 -4 4 -8 15 -8 19 0 19 1
3 13 -10 7 -21 13 -26 13 -18 0 -7 16 12 17 13 1 18 -2 14 -10 -4 -7 -4 -9 1
-5 4 4 15 2 23 -5 13 -10 14 -9 3 11 -8 15 -8 22 -1 22 6 0 15 -10 21 -22 9
-22 9 -21 4 4 -4 22 -2 25 15 21 11 -3 20 -9 20 -14 0 -5 5 -9 12 -9 6 0 3 9
-7 20 -14 15 -15 20 -4 21 8 0 23 3 34 5 11 3 26 6 33 6 6 1 12 5 12 10 0 5 5
6 10 3 6 -4 18 -1 26 6 12 9 17 10 27 0 9 -10 8 -11 -4 -6 -10 4 -19 2 -23 -3
-4 -7 27 -9 44 -2 3 1 8 2 12 2 3 -1 9 5 12 14 4 12 2 12 -14 4 -11 -6 -20 -7
-20 -2 0 14 71 33 83 22 7 -7 55 -5 51 2 -3 5 2 11 10 14 9 3 13 10 10 15 -4
8 9 11 32 8 4 0 11 5 16 13 8 10 9 9 4 -4 -3 -10 -1 -20 5 -23 5 -4 7 -10 5
-14 -3 -4 4 -8 15 -8 19 -2 19 -1 -1 15 -26 22 -12 45 29 45 16 0 28 3 26 7
-2 4 1 7 8 7 7 0 23 3 37 7 24 8 25 8 5 -9 -20 -16 -20 -16 2 -6 12 6 23 14
25 18 3 5 3 3 2 -4 -2 -7 2 -15 8 -19 6 -4 8 -3 5 3 -4 6 0 16 9 23 13 12 14
10 10 -15 -3 -15 -2 -24 2 -20 7 7 9 13 11 46 0 11 6 17 11 14 6 -4 7 -11 4
-17 -4 -7 -2 -8 5 -4 6 4 9 12 6 17 -5 8 16 14 38 10 4 0 7 4 7 11 0 6 6 4 13
-7 14 -18 38 -13 36 8 0 9 -2 9 -6 0 -2 -7 -9 -13 -15 -13 -6 0 -6 6 2 15 7 8
16 13 20 10 5 -3 11 1 14 7 3 7 4 2 3 -12 -1 -18 3 -25 18 -27 l20 -3 -20 9
c-11 5 -14 10 -7 10 8 1 10 6 6 14 -5 7 0 6 11 -3 10 -8 16 -10 12 -4 -4 7 3
14 18 16 23 5 35 -5 18 -15 -5 -2 -2 -2 6 0 8 2 11 -2 7 -12 -3 -10 -2 -13 5
-10 5 4 7 16 3 28 -6 18 -4 20 7 11 16 -13 51 -15 43 -2 -3 5 -10 6 -15 3 -5
-4 -9 -1 -9 4 0 6 9 11 20 11 11 0 20 -4 20 -9 0 -5 7 -12 16 -15 13 -5 14 -4
6 7 -7 8 -9 17 -5 20 3 4 0 7 -7 7 -7 0 -11 3 -8 6 4 3 17 0 30 -7 21 -11 22
-11 9 5 -12 14 -12 16 4 10 14 -6 16 -4 10 6 -5 9 -4 11 4 6 6 -4 19 -2 28 6
12 9 15 9 9 1 -4 -7 -2 -13 3 -13 6 0 11 4 11 8 0 4 13 13 30 19 25 9 32 9 40
-5 9 -14 10 -12 4 7 -4 16 -3 21 5 16 7 -4 19 -1 28 7 14 11 15 10 9 -12 -6
-25 -6 -25 6 -2 6 13 17 21 25 18 7 -3 13 -1 13 5 0 6 4 8 9 4 6 -3 8 -14 6
-25 -2 -12 0 -18 5 -15 5 3 7 14 5 25 -2 11 0 22 6 25 5 4 9 1 9 -4 0 -6 5
-11 11 -11 5 0 7 5 4 10 -4 6 8 10 29 10 19 0 37 6 39 13 4 8 6 8 6 -2 1 -11
5 -10 17 5 8 10 12 13 9 5 -5 -9 1 -8 19 4 14 10 26 13 26 9 0 -5 5 -1 11 9 6
9 14 15 19 12 5 -3 30 15 55 40 25 25 40 45 34 45 -8 0 -8 4 1 15 7 8 16 13
20 10 4 -3 10 5 13 16 3 12 10 18 15 15 6 -3 13 6 16 19 4 14 10 24 15 21 14
-9 28 37 25 77 -4 41 -16 55 -128 147 -37 30 -88 74 -114 98 -26 24 -74 60
-107 80 -33 20 -98 62 -145 92 -73 48 -116 69 -245 120 -11 5 -72 22 -135 40
-63 17 -173 50 -243 72 -71 22 -131 38 -133 35 -3 -3 -31 1 -62 9 -72 17 -67
17 -82 -1z m116 -1270 c-11 -8 -25 -15 -30 -15 -6 0 -2 7 8 15 11 8 25 15 30
15 6 0 2 -7 -8 -15z"/>
<path d="M2155 1071 c-3 -5 -2 -12 3 -15 5 -3 9 1 9 9 0 17 -3 19 -12 6z"/>
<path d="M2010 1039 c0 -5 5 -7 10 -4 6 3 10 8 10 11 0 2 -4 4 -10 4 -5 0 -10
-5 -10 -11z"/>
<path d="M1930 1006 c0 -2 7 -7 16 -10 8 -3 12 -2 9 4 -6 10 -25 14 -25 6z"/>
<path d="M1683 978 c-11 -19 -13 -39 -1 -32 5 3 7 9 4 12 -3 3 -1 11 5 19 6 7
9 13 6 13 -3 0 -9 -6 -14 -12z"/>
<path d="M1610 942 c0 -5 7 -9 15 -9 8 0 12 4 9 9 -3 4 -9 8 -15 8 -5 0 -9 -4
-9 -8z"/>
<path d="M1621 896 c-9 -11 -9 -16 1 -22 7 -4 10 -4 6 1 -4 4 -3 14 3 22 6 7
9 13 6 13 -2 0 -10 -6 -16 -14z"/>
<path d="M1706 898 c3 -5 10 -6 15 -3 13 9 11 12 -6 12 -8 0 -12 -4 -9 -9z"/>
<path d="M1295 879 c-4 -5 -1 -8 7 -7 8 2 13 -7 12 -28 0 -19 5 -31 13 -31 8
0 9 5 4 11 -5 6 -7 21 -5 33 4 22 -21 40 -31 22z"/>
<path d="M1433 873 c0 -9 4 -10 14 -2 7 6 13 12 13 14 0 1 -6 2 -13 2 -8 0
-14 -6 -14 -14z"/>
<path d="M1393 855 c0 -8 4 -12 9 -9 5 3 6 10 3 15 -9 13 -12 11 -12 -6z"/>
<path d="M1486 858 c3 -5 10 -6 15 -3 13 9 11 12 -6 12 -8 0 -12 -4 -9 -9z"/>
<path d="M1266 842 c-2 -4 4 -8 14 -8 10 0 16 4 14 8 -3 4 -9 8 -14 8 -5 0
-11 -4 -14 -8z"/>
<path d="M1137 825 c-4 -8 -3 -16 1 -19 4 -3 9 4 9 15 2 23 -3 25 -10 4z"/>
<path d="M1187 818 c4 -7 8 -16 8 -20 0 -3 3 -9 7 -13 3 -4 5 1 3 12 -2 10 -4
21 -4 26 -1 4 -6 7 -12 7 -6 0 -7 -5 -2 -12z"/>
<path d="M1106 803 c-6 -14 -5 -15 5 -6 7 7 10 15 7 18 -3 3 -9 -2 -12 -12z"/>
<path d="M1376 798 c3 -5 10 -6 15 -3 13 9 11 12 -6 12 -8 0 -12 -4 -9 -9z"/>
<path d="M1219 773 c-13 -16 -12 -17 3 -5 9 8 23 10 29 6 8 -4 9 -3 5 4 -10
17 -21 15 -37 -5z"/>
<path d="M1019 758 c-5 -18 -6 -38 -1 -34 7 8 12 36 6 36 -2 0 -4 -1 -5 -2z"/>
<path d="M1050 756 c0 -2 8 -10 18 -17 15 -13 16 -12 3 4 -13 16 -21 21 -21
13z"/>
<path d="M1156 747 c3 -10 9 -15 12 -12 3 3 0 11 -7 18 -10 9 -11 8 -5 -6z"/>
<path d="M1095 740 c3 -5 8 -10 11 -10 2 0 4 5 4 10 0 6 -5 10 -11 10 -5 0 -7
-4 -4 -10z"/>
<path d="M1193 735 c0 -8 4 -12 9 -9 5 3 6 10 3 15 -9 13 -12 11 -12 -6z"/>
<path d="M879 728 c-7 -23 -4 -35 7 -35 9 0 11 4 4 12 -5 7 -7 15 -3 18 3 4 3
7 0 7 -4 0 -7 -1 -8 -2z"/>
<path d="M912 711 c7 -9 13 -18 15 -20 1 -2 1 5 0 16 0 11 -7 20 -14 20 -10 0
-10 -4 -1 -16z"/>
<path d="M764 712 c-20 -14 -23 -38 -3 -38 13 0 15 4 8 12 -7 9 -5 16 8 23 10
6 14 10 8 11 -5 0 -15 -4 -21 -8z"/>
<path d="M793 696 c-3 -6 -3 -8 2 -4 4 4 13 3 20 -2 8 -7 12 -5 12 3 0 16 -25
18 -34 3z"/>
<path d="M1015 700 c-3 -5 -1 -10 4 -10 6 0 11 5 11 10 0 6 -2 10 -4 10 -3 0
-8 -4 -11 -10z"/>
<path d="M522 646 c7 -8 15 -12 17 -11 5 6 -10 25 -20 25 -5 0 -4 -6 3 -14z"/>
<path d="M450 641 c0 -7 -4 -10 -8 -7 -5 3 -9 -1 -9 -9 0 -8 4 -15 8 -15 9 0
21 31 14 38 -3 3 -5 0 -5 -7z"/>
<path d="M473 635 c0 -7 10 -18 21 -25 19 -12 20 -12 8 3 -8 9 -11 20 -8 25 3
5 -1 9 -8 9 -7 0 -13 -6 -13 -12z"/>
<path d="M830 645 c0 -7 30 -13 34 -7 3 4 -4 9 -15 9 -10 1 -19 0 -19 -2z"/>
<path d="M412 620 c0 -14 2 -19 5 -12 2 6 2 18 0 25 -3 6 -5 1 -5 -13z"/>
<path d="M541 618 c-14 -23 -14 -23 8 -4 22 20 25 26 13 26 -4 0 -13 -10 -21
-22z"/>
<path d="M653 626 c0 -11 33 -16 39 -5 2 2 1 3 -1 2 -2 -1 -11 2 -21 7 -12 6
-17 5 -17 -4z"/>
<path d="M360 616 c0 -2 7 -7 16 -10 8 -3 12 -2 9 4 -6 10 -25 14 -25 6z"/>
<path d="M471 593 c7 -12 15 -20 18 -17 3 2 -3 12 -13 22 -17 16 -18 16 -5 -5z"/>
<path d="M587 599 c7 -7 15 -10 18 -7 3 3 -2 9 -12 12 -14 6 -15 5 -6 -5z"/>
<path d="M453 575 c0 -8 4 -12 9 -9 5 3 6 10 3 15 -9 13 -12 11 -12 -6z"/>
<path d="M521 576 c-9 -11 -9 -16 1 -22 7 -4 10 -4 6 1 -4 4 -3 14 3 22 6 7 9
13 6 13 -2 0 -10 -6 -16 -14z"/>
</g>
</svg>
